<?xml version="1.0" encoding="UTF-8" standalone="no"?>
<!-- Created with Inkscape (http://www.inkscape.org/) -->

<svg
   xmlns:dc="http://purl.org/dc/elements/1.1/"
   xmlns:cc="http://creativecommons.org/ns#"
   xmlns:rdf="http://www.w3.org/1999/02/22-rdf-syntax-ns#"
   xmlns:svg="http://www.w3.org/2000/svg"
   xmlns="http://www.w3.org/2000/svg"
   xmlns:sodipodi="http://sodipodi.sourceforge.net/DTD/sodipodi-0.dtd"
   xmlns:inkscape="http://www.inkscape.org/namespaces/inkscape"
   width="13.5cm"
   height="13.5cm"
   viewBox="0 0 135 135"
   version="1.1"
   id="svg8"
   inkscape:version="0.92.4 (5da689c313, 2019-01-14)"
   sodipodi:docname="shopOutline.svg">
  <defs
     id="defs2" />
  <sodipodi:namedview
     id="base"
     pagecolor="#ffffff"
     bordercolor="#666666"
     borderopacity="1.0"
     inkscape:pageopacity="0.0"
     inkscape:pageshadow="2"
     inkscape:zoom="0.98994949"
     inkscape:cx="154.18009"
     inkscape:cy="247.11479"
     inkscape:document-units="mm"
     inkscape:current-layer="layer1"
     showgrid="false"
     inkscape:window-width="1360"
     inkscape:window-height="705"
     inkscape:window-x="-8"
     inkscape:window-y="-8"
     inkscape:window-maximized="1"
     showguides="false"
     inkscape:guide-bbox="true"
     inkscape:snap-bbox="true"
     inkscape:snap-bbox-midpoints="true"
     units="cm">
    <sodipodi:guide
       position="-165.17256,288.11656"
       orientation="0,1"
       id="guide857"
       inkscape:locked="false" />
    <sodipodi:guide
       position="-95.249998,134.08705"
       orientation="1,0"
       id="guide859"
       inkscape:locked="false" />
    <sodipodi:guide
       position="-72.193451,134.08705"
       orientation="1,0"
       id="guide863"
       inkscape:locked="false" />
  </sodipodi:namedview>
  <metadata
     id="metadata5">
    <rdf:RDF>
      <cc:Work
         rdf:about="">
        <dc:format>image/svg+xml</dc:format>
        <dc:type
           rdf:resource="http://purl.org/dc/dcmitype/StillImage" />
        <dc:title />
      </cc:Work>
    </rdf:RDF>
  </metadata>
  <g
     inkscape:label="Camada 1"
     inkscape:groupmode="layer"
     id="layer1"
     transform="translate(0,-162.00002)">
    <path
       inkscape:export-ydpi="96"
       inkscape:export-xdpi="96"
       style="display:inline;fill:#808080;fill-opacity:1;stroke:#999999;stroke-width:0.13870242;stroke-opacity:1"
       d="m 38.862488,293.87422 c -6.660542,-1.30032 -11.218317,-7.35174 -10.531136,-13.98667 0.160103,-1.62586 0.44595,-2.65667 1.097768,-4.08071 2.13019,-4.63174 6.62165,-7.5339 11.667653,-7.54077 5.026565,-0.006 9.34648,2.6521 11.604778,7.14125 1.120579,2.23748 1.587094,4.72343 1.303521,7.01832 -0.228692,1.85878 -0.491679,2.77788 -1.256645,4.35525 -1.616819,3.35051 -4.458267,5.72681 -8.133287,6.80279 -1.50248,0.44023 -4.273039,0.57858 -5.756081,0.29043 z m 5.202656,-3.2771 c 3.226789,-1.00851 5.724061,-3.60858 6.665116,-6.9369 0.343031,-1.21286 0.343031,-3.73619 0,-4.99341 -0.949053,-3.49253 -3.775641,-6.25668 -7.306583,-7.12684 -1.120571,-0.27557 -3.206209,-0.287 -4.45256,-0.0229 -4.41597,0.93533 -7.655333,5.01856 -7.655333,9.6471 0,4.6506 3.176476,8.60679 7.746811,9.65338 1.221188,0.27899 3.755057,0.16808 4.993404,-0.22069 z m -3.808798,-4.72767 c -1.528784,-0.30644 -2.776276,-1.29768 -3.45548,-2.74745 -0.30873,-0.66205 -0.365899,-0.96735 -0.365899,-2.02789 0,-1.10342 0,-1.34126 0.4002,-2.05145 1.109138,-2.20135 3.715039,-3.22999 6.043084,-2.3883 1.086269,0.39219 2.344055,1.65627 2.764842,2.77535 0.434509,1.15694 0.365899,2.74712 -0.160082,3.84894 -0.926188,1.87856 -3.176476,2.99981 -5.217519,2.5908 z m 1.571084,-3.09517 c 0.674628,-0.279 1.063402,-0.89532 1.063402,-1.68075 0,-0.55456 -0.114346,-0.72151 -0.457377,-1.1137 -0.594591,-0.58888 -1.08627,-0.71809 -1.81235,-0.46768 -1.630549,0.5683 -1.53793,2.92938 0.125773,3.35326 0.46881,0.11892 0.606024,0.10291 1.086269,-0.0915 z m 39.893501,11.20549 c -2.71567,-0.49968 -4.561182,-1.32239 -6.494743,-2.89474 -2.113067,-1.7195 -3.630418,-4.14897 -4.33249,-6.93954 -0.457377,-1.80972 -0.434509,-4.34176 0,-6.1819 1.51735,-5.7722 6.588496,-9.68997 12.55497,-9.69752 5.860133,-0.006 10.994186,3.97918 12.461224,9.6782 0.491672,1.85912 0.503105,4.40579 0.114339,6.18418 -1.132005,4.62488 -4.47314,8.08287 -9.133806,9.45992 -0.971923,0.28814 -1.584806,0.36933 -3.024398,0.40821 -0.983358,0.0229 -1.958717,0.0229 -2.149672,-0.0114 z m 4.076367,-3.24177 c 2.920348,-0.74781 5.281553,-2.67325 6.551913,-5.3441 0.70893,-1.48487 0.949056,-2.55479 0.949056,-4.29979 0,-1.74238 -0.240126,-2.76885 -0.994792,-4.28997 -1.006232,-2.03372 -2.53158,-3.545 -4.560041,-4.5319 -1.576808,-0.76726 -2.791139,-0.99937 -4.765865,-0.91362 -2.281161,0.0915 -4.002041,0.73066 -5.719484,2.09959 -1.510486,1.20141 -2.868895,3.34251 -3.391447,5.34753 -0.320163,1.21056 -0.308729,3.51768 0,4.71589 0.823276,3.09278 3.064419,5.66906 5.917304,6.79924 1.84323,0.73066 4.16327,0.89188 6.017925,0.41736 z m -3.385728,-4.90433 c -1.454457,-0.32245 -2.696232,-1.32879 -3.360574,-2.72837 -0.240119,-0.49739 -0.297295,-0.89188 -0.297295,-1.9419 0,-1.16642 0,-1.40723 0.37734,-2.10016 0.468811,-0.95592 1.385846,-1.82527 2.435526,-2.31215 1.149156,-0.5317 2.66307,-0.52027 3.87169,0.0343 1.006225,0.45738 1.985013,1.42782 2.437821,2.40877 0.445936,0.98107 0.423069,3.01651 0,3.98306 -0.983364,2.01269 -3.266814,3.13349 -5.416484,2.65907 z m 1.72202,-3.05939 c 0.914753,-0.37962 1.330963,-1.5465 0.880451,-2.43885 -0.25156,-0.48138 -1.029099,-0.97421 -1.55622,-0.97421 -0.525988,0 -1.311533,0.49283 -1.557369,0.97421 -0.423075,0.84615 0,2.05877 0.846144,2.42547 0.571723,0.24812 0.83471,0.25155 1.403004,0.0114 z M 32.301437,264.2287 c -4.514307,-0.65976 -8.411226,-4.3938 -9.250476,-8.86384 -0.114339,-0.34304 -0.125816,-15.91624 -0.137221,-34.60635 0,-20.39304 -0.114339,-34.42591 -0.160104,-35.09173 -0.251559,-2.05546 -1.463595,-3.96362 -3.168493,-4.95865 -0.343016,-0.2001 -1.87411,-0.76954 -3.399466,-1.26464 -1.526503,-0.49511 -4.903087,-1.59224 -7.5066999,-2.43747 -5.1969677,-1.68772 -5.6028927,-1.88817 -6.3918597,-3.15442 -0.640341,-1.03595 -0.800444,-1.55485 -0.789039,-2.67908 0,-1.35635 0.491715,-2.49487 1.469334,-3.40608 1.017716,-0.94905 1.747219,-1.23469 3.168493,-1.23788 1.109173,-0.003 1.3893535,0.0572 5.1318366,1.29014 2.174806,0.71122 5.555981,1.81635 7.514734,2.4561 1.959829,0.63919 4.098124,1.42668 4.748722,1.74833 2.360087,1.16402 4.669819,3.22679 6.140301,5.48085 1.903878,2.9223 2.679073,5.70817 2.679073,9.63737 v 2.06243 h 47.826713 c 43.388995,0 47.897595,0.0229 48.580225,0.22183 3.33884,0.98221 5.61086,3.86609 5.78352,7.34421 0.11434,1.88781 -0.32017,3.26715 -1.63512,5.40309 -0.57173,0.91475 -3.46576,5.77609 -9.77299,16.36698 -2.27088,3.81418 -4.39539,7.37188 -4.72013,7.90609 -0.32015,0.53399 -2.91349,4.87186 -5.75378,9.63978 -4.65495,7.81428 -5.25526,8.75773 -6.08997,9.57117 -0.56029,0.54542 -1.27836,1.07712 -1.82493,1.34617 -1.91183,0.93991 0.97192,0.8713 -36.360265,0.8713 H 34.568869 v 2.42604 2.42604 l 30.067923,0.0343 30.065627,0.0343 0.903313,0.4448 c 1.006232,0.49625 2.007888,1.40323 2.531574,2.29717 0.949055,1.60379 1.040534,3.76112 0.262993,5.44392 -0.754672,1.62072 -2.43884,2.92607 -4.196316,3.25939 -0.891879,0.16922 -60.725803,0.15436 -61.887555,-0.0114 z M 94.413121,260.97 c 1.063402,-0.55571 1.644264,-1.85821 1.401857,-3.14664 -0.114346,-0.59344 -0.96049,-1.60218 -1.567655,-1.85442 -0.377333,-0.16237 -5.214091,-0.19325 -30.306897,-0.19553 -19.325286,-0.003 -30.065625,-0.0572 -30.465832,-0.14179 -0.800372,-0.18181 -1.350404,-0.57973 -1.687682,-1.24361 -0.263037,-0.49853 -0.285919,-0.8267 -0.285919,-4.50103 0,-3.50076 0,-4.0057 0.240154,-4.32438 0.50312,-0.78441 -1.717594,-0.73752 35.668486,-0.73638 31.60012,0.001 34.589077,-0.0229 35.201967,-0.22526 0.72036,-0.24127 1.26464,-0.57515 1.89582,-1.15224 0.35446,-0.32474 2.61162,-4.02034 8.85709,-14.50672 4.77729,-8.02238 11.73284,-19.67724 12.86942,-21.56838 3.49092,-5.80959 4.89622,-8.24306 5.09174,-8.81832 0.32016,-0.94448 0.19438,-2.54256 -0.27442,-3.54353 -0.45737,-0.96049 -1.49448,-1.95677 -2.55673,-2.45417 l -0.78897,-0.37161 -48.75403,-0.0572 c -26.815975,-0.0458 -48.855806,-0.12006 -48.980474,-0.18296 -0.583099,-0.287 -0.663151,-0.84614 -0.72032,-4.39561 0,-3.21696 -0.114339,-3.46473 -0.423069,-4.64649 -0.8919,-2.96642 -2.357791,-5.12421 -4.699587,-6.91278 -1.791763,-1.36996 -2.356643,-1.58115 -15.7040959,-5.8718 -2.2697777,-0.72836 -2.8208857,-0.73752 -3.4257917,-0.0572 -0.514525,0.56143 -0.628863,1.23903 -0.320134,1.86576 0.125744,0.26985 0.365899,0.57629 0.537407,0.68263 0.160103,0.10291 1.704898,0.64376 3.4212005,1.19672 10.0108941,3.22405 11.6402591,3.78422 12.4658811,4.28471 1.787173,1.08283 2.96033,2.37652 3.839678,4.23518 0.971881,2.02595 0.903306,-0.6003 0.937593,37.683 v 34.60623 l 0.388781,1.08627 c 0.983358,2.79857 3.22222,4.83538 5.950501,5.42917 0.731797,0.16008 5.900166,0.18639 31.252525,0.16695 l 30.377788,-0.0229 z"
       id="path1180"
       inkscape:connector-curvature="0"
       sodipodi:nodetypes="cssccsccscccccsccccsccccsccsccccsccscsscccccsscscsscscccccsccccccccsscccccscccsscccccccscscsccccccscccccscccccccccsssccccscccccscccccccccccscccsccccc"
       inkscape:export-filename="C:\Users\Felipe\Desktop\App - Amicão\AmiCão\front-end\assets\icons\shop-outline.png" />
  </g>
</svg>
