<?xml version="1.0" encoding="UTF-8" standalone="no"?>
<!-- Created with Inkscape (http://www.inkscape.org/) -->

<svg
   xmlns:dc="http://purl.org/dc/elements/1.1/"
   xmlns:cc="http://creativecommons.org/ns#"
   xmlns:rdf="http://www.w3.org/1999/02/22-rdf-syntax-ns#"
   xmlns:svg="http://www.w3.org/2000/svg"
   xmlns="http://www.w3.org/2000/svg"
   xmlns:sodipodi="http://sodipodi.sourceforge.net/DTD/sodipodi-0.dtd"
   xmlns:inkscape="http://www.inkscape.org/namespaces/inkscape"
   width="13.5cm"
   height="13.5cm"
   viewBox="0 0 135 135"
   version="1.1"
   id="svg8"
   inkscape:version="0.92.4 (5da689c313, 2019-01-14)"
   sodipodi:docname="shop.svg">
  <defs
     id="defs2" />
  <sodipodi:namedview
     id="base"
     pagecolor="#ffffff"
     bordercolor="#666666"
     borderopacity="1.0"
     inkscape:pageopacity="0.0"
     inkscape:pageshadow="2"
     inkscape:zoom="0.7"
     inkscape:cx="441.45293"
     inkscape:cy="287.28859"
     inkscape:document-units="mm"
     inkscape:current-layer="layer1"
     showgrid="false"
     inkscape:window-width="1360"
     inkscape:window-height="705"
     inkscape:window-x="-8"
     inkscape:window-y="-8"
     inkscape:window-maximized="1"
     showguides="false"
     inkscape:guide-bbox="true"
     inkscape:snap-bbox="true"
     inkscape:snap-bbox-midpoints="true"
     units="cm">
    <sodipodi:guide
       position="-165.17256,288.11656"
       orientation="0,1"
       id="guide857"
       inkscape:locked="false" />
    <sodipodi:guide
       position="-95.249998,134.08705"
       orientation="1,0"
       id="guide859"
       inkscape:locked="false" />
    <sodipodi:guide
       position="-72.193451,134.08705"
       orientation="1,0"
       id="guide863"
       inkscape:locked="false" />
  </sodipodi:namedview>
  <metadata
     id="metadata5">
    <rdf:RDF>
      <cc:Work
         rdf:about="">
        <dc:format>image/svg+xml</dc:format>
        <dc:type
           rdf:resource="http://purl.org/dc/dcmitype/StillImage" />
        <dc:title></dc:title>
      </cc:Work>
    </rdf:RDF>
  </metadata>
  <g
     inkscape:label="Camada 1"
     inkscape:groupmode="layer"
     id="layer1"
     transform="translate(0,-162.00002)">
    <g
       id="g899"
       transform="matrix(0.73414849,0,0,0.73414849,13.294074,107.46907)">
      <path
         sodipodi:nodetypes="cscccssssscsssscccscsscc"
         inkscape:connector-curvature="0"
         id="path845"
         d="m 24.070273,206.24471 c -4.003299,-0.33431 -8.0288,-3.03029 -8.052501,-7.15031 l -0.2672,-46.54254 -0.2075,-39.00341 C 15.837273,95.977233 9.6470726,94.363922 -2.2879274,90.424402 c -11.1191006,-3.68457 -12.7641006,-4.60309 -11.3328006,-6.32771 0.3504,-0.42221 1.1359,-0.76764 1.7455,-0.76764 1.4322,0 17.3143006,5.05383 20.9884006,6.6787 6.7770994,2.997141 10.4409014,8.816141 10.7719004,17.108288 0.1056,2.64597 0.305501,5.35207 0.444301,6.01356 l 0.252399,1.20271 h 68.214105 c 67.479602,0 68.232802,0.0116 69.959102,1.0785 2.3613,1.45935 3.4593,3.28695 3.4593,5.75794 0,2.28051 -0.3893,2.96873 -24.0666,42.54688 -7.5531,12.6256 -13.6306,22.21918 -14.3916,22.71795 l -99.652107,-0.42939 0.078,12.44586 c 0.850001,0.76921 5.338601,0.87426 43.509203,1.01829 40.981904,0.15463 42.603204,0.19839 43.686304,1.17889 1.46919,1.33005 1.44819,3.71694 -0.045,5.10807 -1.1578,1.07864 -1.604,1.08936 -43.164105,1.03622 -23.5518,-0.0301 -42.918001,-0.27025 -44.0979,-0.54681 z"
         style="opacity:1;fill:#134885;fill-opacity:1;stroke:#134885;stroke-width:5.05076265;stroke-linecap:round;stroke-linejoin:round;stroke-miterlimit:4;stroke-dasharray:none;stroke-dashoffset:0;stroke-opacity:1;paint-order:normal" />
      <path
         id="path853"
         d="M 40.997873,214.40615 A 17.859373,17.859373 0 0 0 23.138474,232.26553 17.859373,17.859373 0 0 0 40.997873,250.1249 17.859373,17.859373 0 0 0 58.857274,232.26553 17.859373,17.859373 0 0 0 40.997873,214.40615 Z m 0,11.34453 a 6.5146941,6.5146941 0 0 1 6.514801,6.51485 6.5146941,6.5146941 0 0 1 -6.514801,6.51484 6.5146941,6.5146941 0 0 1 -6.514399,-6.51484 6.5146941,6.5146941 0 0 1 6.514399,-6.51485 z"
         style="opacity:1;fill:#134885;fill-opacity:1;stroke:none;stroke-width:2.625;stroke-linecap:round;stroke-linejoin:round;stroke-miterlimit:4;stroke-dasharray:none;stroke-dashoffset:0;stroke-opacity:1;paint-order:normal"
         inkscape:connector-curvature="0" />
      <path
         id="circle867"
         d="M 99.584468,214.40615 A 17.859373,17.859373 0 0 0 81.725074,232.26553 17.859373,17.859373 0 0 0 99.584468,250.1249 17.859373,17.859373 0 0 0 117.44388,232.26553 17.859373,17.859373 0 0 0 99.584468,214.40615 Z m 0,11.34453 a 6.5146941,6.5146941 0 0 1 6.514812,6.51485 6.5146941,6.5146941 0 0 1 -6.514812,6.51484 6.5146941,6.5146941 0 0 1 -6.51489,-6.51484 6.5146941,6.5146941 0 0 1 6.51489,-6.51485 z"
         style="opacity:1;fill:#134885;fill-opacity:1;stroke:none;stroke-width:2.625;stroke-linecap:round;stroke-linejoin:round;stroke-miterlimit:4;stroke-dasharray:none;stroke-dashoffset:0;stroke-opacity:1;paint-order:normal"
         inkscape:connector-curvature="0" />
    </g>
  </g>
</svg>
