<?xml version="1.0" encoding="UTF-8" standalone="no"?>
<!-- Created with Inkscape (http://www.inkscape.org/) -->

<svg
   xmlns:dc="http://purl.org/dc/elements/1.1/"
   xmlns:cc="http://creativecommons.org/ns#"
   xmlns:rdf="http://www.w3.org/1999/02/22-rdf-syntax-ns#"
   xmlns:svg="http://www.w3.org/2000/svg"
   xmlns="http://www.w3.org/2000/svg"
   xmlns:xlink="http://www.w3.org/1999/xlink"
   xmlns:sodipodi="http://sodipodi.sourceforge.net/DTD/sodipodi-0.dtd"
   xmlns:inkscape="http://www.inkscape.org/namespaces/inkscape"
   width="13.5cm"
   height="13.5cm"
   viewBox="0 0 135 135"
   version="1.1"
   id="svg8"
   inkscape:version="0.92.4 (5da689c313, 2019-01-14)"
   sodipodi:docname="cat.svg">
  <defs
     id="defs2">
    <linearGradient
       inkscape:collect="always"
       id="linearGradient1428">
      <stop
         style="stop-color:#144f8a;stop-opacity:1;"
         offset="0"
         id="stop1424" />
      <stop
         style="stop-color:#1477a5;stop-opacity:1"
         offset="1"
         id="stop1426" />
    </linearGradient>
    <linearGradient
       inkscape:collect="always"
       xlink:href="#linearGradient1428"
       id="linearGradient1438"
       x1="-203.67477"
       y1="87.293098"
       x2="-203.56123"
       y2="82.511765"
       gradientUnits="userSpaceOnUse" />
  </defs>
  <sodipodi:namedview
     id="base"
     pagecolor="#ffffff"
     bordercolor="#666666"
     borderopacity="1.0"
     inkscape:pageopacity="0.0"
     inkscape:pageshadow="2"
     inkscape:zoom="0.49497475"
     inkscape:cx="61.005296"
     inkscape:cy="538.99664"
     inkscape:document-units="mm"
     inkscape:current-layer="g16"
     showgrid="false"
     inkscape:window-width="1360"
     inkscape:window-height="705"
     inkscape:window-x="-8"
     inkscape:window-y="-8"
     inkscape:window-maximized="1"
     units="cm"
     inkscape:snap-bbox="true"
     inkscape:snap-bbox-midpoints="true" />
  <metadata
     id="metadata5">
    <rdf:RDF>
      <cc:Work
         rdf:about="">
        <dc:format>image/svg+xml</dc:format>
        <dc:type
           rdf:resource="http://purl.org/dc/dcmitype/StillImage" />
        <dc:title />
      </cc:Work>
    </rdf:RDF>
  </metadata>
  <g
     inkscape:label="Camada 1"
     inkscape:groupmode="layer"
     id="layer1"
     transform="translate(0,-162.00002)">
    <g
       transform="matrix(0.26494817,0,0,0.26494817,-1.7446628,161.64736)"
       id="g16">
      <path
         inkscape:connector-curvature="0"
         style="fill:#14679a;fill-opacity:1"
         d="m 475.658,71.811 c -3.324,-4.249 -6.194,-7.92 -7.689,-10.054 -6.27,-8.958 -26.833,-13.104 -40.164,-14.893 V 7.5 c 0,-2.222 -0.985,-4.329 -2.689,-5.754 -1.704,-1.425 -3.953,-2.02 -6.14,-1.628 -2.014,0.363 -48.37,9.195 -63.688,53.385 -9.488,4.473 -34.559,19.569 -43.562,57.221 -1.422,5.945 -2.585,12.474 -3.815,19.387 -7.755,43.553 -18.375,103.2 -113.333,143.021 -64.987,27.252 -87.115,92.936 -81.414,147.692 -30.712,-15.35 -49.024,-40.917 -54.471,-76.096 -6.976,-45.043 3.38,-79.655 30.777,-102.877 20.969,-17.77 45.12,-22.85 45.265,-22.88 12.821,-2.406 21.295,-14.796 18.89,-27.618 -2.403,-12.808 -14.791,-21.278 -27.615,-18.89 -1.423,0.267 -35.188,6.819 -65.866,32.23 -28.324,23.461 -59.683,68.045 -48.224,147.203 5.555,38.366 23.225,74.018 49.754,100.388 24.402,24.255 54.09,39.083 83.891,41.963 12.033,11.166 26.424,17.049 41.786,17.049 h 168.5 c 3.948,0 7.221,-3.062 7.483,-7.001 0.057,-0.843 1.221,-20.811 -12.306,-35.27 -7.995,-8.546 -19.16,-13.261 -33.232,-14.046 16.71,-9.18 27.561,-22.263 32.092,-38.58 l 26.398,74.624 c 4.291,12.126 15.815,20.273 28.676,20.273 h 55.961 c 4.143,0 7.5,-3.357 7.5,-7.5 0,-15.557 -8.102,-28.735 -23.431,-38.113 -6.017,-3.682 -12.019,-6.061 -16.259,-7.47 v -83.73 c 20.395,-25.87 30.064,-54.356 28.745,-84.707 -1.21,-27.836 -11.455,-47.067 -13.497,-50.64 l -0.897,-1.559 c -4.775,-8.273 -17.46,-30.246 -11.678,-42.346 2.427,-5.078 8.5,-8.413 18.05,-9.911 21.836,-3.425 37.755,-15.963 46.035,-36.26 4.185,-10.256 6.307,-22.097 6.307,-35.193 0,-7.39 -8.064,-18.947 -26.14,-42.056 z"
         id="path2" />
      <path
         inkscape:connector-curvature="0"
         style="fill:#1450ac;fill-opacity:1"
         d="m 441.965,106.239 c -6.009,0 -10.897,-4.889 -10.897,-10.898 0,-6.009 4.889,-10.897 10.897,-10.897 6.009,0 10.897,4.889 10.897,10.897 10e-4,6.01 -4.888,10.898 -10.897,10.898 z"
         id="path4" />
      <path
         inkscape:connector-curvature="0"
         style="fill:#ff3d43"
         d="m 436.624,225.593 c -6.875,-14.265 -7.214,-22.617 -6.287,-27.113 0.449,-2.18 -0.093,-4.446 -1.479,-6.187 -1.387,-1.741 -3.475,-2.776 -5.7,-2.825 -39.424,-0.874 -66.093,-12.192 -81.522,-21.532 -16.682,-10.099 -24.205,-20.132 -24.269,-20.218 -1.739,-2.386 -4.714,-3.526 -7.602,-2.922 -2.888,0.606 -5.152,2.85 -5.784,5.731 -2.981,13.579 -6.505,24.778 -11.09,35.243 -1.395,3.182 -0.422,6.903 2.351,8.996 46.601,35.171 94.4,41.884 124.084,41.884 4.003,0 7.68,-0.122 10.977,-0.313 2.499,-0.145 4.761,-1.526 6.03,-3.684 1.268,-2.157 1.377,-4.805 0.291,-7.06 z"
         id="path6" />
      <path
         inkscape:connector-curvature="0"
         style="fill:#d72e2e"
         d="m 430.336,198.48 c 0.449,-2.18 -0.093,-4.446 -1.479,-6.187 -1.387,-1.741 -3.475,-2.776 -5.7,-2.825 -6.985,-0.155 -13.562,-0.643 -19.755,-1.385 -3.939,1.764 -6.653,4.149 -8.085,7.146 -5.491,11.49 5.666,31.875 10.894,40.985 4.672,0.305 9.066,0.436 13.113,0.436 4.003,0 7.68,-0.122 10.977,-0.313 2.499,-0.145 4.761,-1.526 6.03,-3.684 1.27,-2.157 1.379,-4.806 0.292,-7.061 -6.874,-14.264 -7.213,-22.616 -6.287,-27.112 z"
         id="path8" />
      <path
         inkscape:connector-curvature="0"
         style="fill:#144fac;fill-opacity:1"
         d="m 499.299,136.977 c 1.66,-7.154 2.5,-14.884 2.5,-23.111 0,-4.39 -2.848,-10.253 -8.952,-19.136 -5.451,3.744 -12.697,13.63 -12.697,19.136 0,1.735 0,5.8 9.468,15.256 4.234,4.228 7.36,6.557 9.681,7.855 z"
         id="path10" />
      <path
         inkscape:connector-curvature="0"
         style="fill:#1460ac;fill-opacity:1"
         d="m 436.332,232.653 c -1.27,2.157 -3.531,3.539 -6.03,3.684 -3.297,0.191 -6.974,0.313 -10.977,0.313 -4.047,0 -8.442,-0.131 -13.113,-0.436 0.277,0.484 0.543,0.944 0.784,1.361 l 0.897,1.559 c 2.042,3.572 12.287,22.804 13.497,50.64 1.319,30.351 -8.351,58.837 -28.745,84.707 v 83.73 c 4.24,1.409 10.242,3.788 16.259,7.47 15.328,9.378 23.431,22.557 23.431,38.113 0,4.143 -3.357,7.5 -7.5,7.5 h 36.09 c 4.143,0 7.5,-3.357 7.5,-7.5 0,-15.557 -8.102,-28.735 -23.431,-38.113 -6.017,-3.682 -12.019,-6.061 -16.259,-7.47 v -83.73 c 20.395,-25.87 30.064,-54.356 28.745,-84.707 -1.21,-27.836 -11.455,-47.067 -13.497,-50.64 l -0.897,-1.559 c -2.235,-3.872 -6.202,-10.745 -9.198,-18.202 0.773,1.941 1.668,4.001 2.737,6.22 1.085,2.255 0.976,4.903 -0.293,7.06 z"
         id="path12" />
      <path
         inkscape:connector-curvature="0"
         style="fill:#1461ac;fill-opacity:1"
         d="m 363.335,504.294 c 0.057,-0.843 1.221,-20.811 -12.306,-35.27 -7.995,-8.546 -19.16,-13.261 -33.232,-14.046 h -29.034 c 0,0 48.857,22.363 30.357,55.527 -0.107,0.192 0.466,0.472 1.095,0.789 h 35.637 c 3.947,0.001 7.22,-3.061 7.483,-7 z"
         id="path14" />
    </g>
  </g>
</svg>
