<?xml version="1.0" encoding="UTF-8" standalone="no"?>
<!-- Created with Inkscape (http://www.inkscape.org/) -->

<svg
   xmlns:dc="http://purl.org/dc/elements/1.1/"
   xmlns:cc="http://creativecommons.org/ns#"
   xmlns:rdf="http://www.w3.org/1999/02/22-rdf-syntax-ns#"
   xmlns:svg="http://www.w3.org/2000/svg"
   xmlns="http://www.w3.org/2000/svg"
   xmlns:xlink="http://www.w3.org/1999/xlink"
   xmlns:sodipodi="http://sodipodi.sourceforge.net/DTD/sodipodi-0.dtd"
   xmlns:inkscape="http://www.inkscape.org/namespaces/inkscape"
   width="13.5cm"
   height="13.5cm"
   viewBox="0 0 135 135"
   version="1.1"
   id="svg8"
   inkscape:version="0.92.4 (5da689c313, 2019-01-14)"
   sodipodi:docname="dog.svg">
  <defs
     id="defs2">
    <linearGradient
       inkscape:collect="always"
       id="linearGradient1428">
      <stop
         style="stop-color:#144f8a;stop-opacity:1;"
         offset="0"
         id="stop1424" />
      <stop
         style="stop-color:#1477a5;stop-opacity:1"
         offset="1"
         id="stop1426" />
    </linearGradient>
    <linearGradient
       inkscape:collect="always"
       xlink:href="#linearGradient1428"
       id="linearGradient1438"
       x1="-203.67477"
       y1="87.293098"
       x2="-203.56123"
       y2="82.511765"
       gradientUnits="userSpaceOnUse" />
  </defs>
  <sodipodi:namedview
     id="base"
     pagecolor="#ffffff"
     bordercolor="#666666"
     borderopacity="1.0"
     inkscape:pageopacity="0.0"
     inkscape:pageshadow="2"
     inkscape:zoom="0.98994949"
     inkscape:cx="249.29326"
     inkscape:cy="244.27903"
     inkscape:document-units="mm"
     inkscape:current-layer="layer1"
     showgrid="false"
     inkscape:window-width="1360"
     inkscape:window-height="705"
     inkscape:window-x="-8"
     inkscape:window-y="-8"
     inkscape:window-maximized="1"
     units="cm"
     inkscape:snap-bbox="true"
     inkscape:snap-bbox-midpoints="true" />
  <metadata
     id="metadata5">
    <rdf:RDF>
      <cc:Work
         rdf:about="">
        <dc:format>image/svg+xml</dc:format>
        <dc:type
           rdf:resource="http://purl.org/dc/dcmitype/StillImage" />
        <dc:title />
      </cc:Work>
    </rdf:RDF>
  </metadata>
  <g
     inkscape:label="Camada 1"
     inkscape:groupmode="layer"
     id="layer1"
     transform="translate(0,-162.00002)">
    <g
       id="g1442"
       transform="matrix(1.5696981,0,0,1.5696981,411.56569,49.492374)"
       style="fill:#145890;fill-opacity:0.99989104">
      <circle
         r="1.7706606"
         cy="84.283531"
         cx="-203.4184"
         id="path832"
         style="opacity:1;fill:#145890;fill-opacity:0.99989104;stroke:none;stroke-width:0.5;stroke-linecap:round;stroke-linejoin:round;stroke-miterlimit:4;stroke-dasharray:none;stroke-dashoffset:0;stroke-opacity:1;paint-order:normal" />
      <path
         sodipodi:nodetypes="cssssccccccscccscccccscccssccccccccccsssccccscccsccccsccccccscsccccscccsccc"
         inkscape:connector-curvature="0"
         id="path830"
         d="m -238.44628,155.48812 c -8.51893,-1.19416 -13.85594,-4.90846 -17.20861,-11.97633 -1.54538,-3.25787 -2.05274,-5.82675 -1.9157,-9.69959 0.13462,-3.80445 0.83846,-6.34993 2.52945,-9.14789 1.70923,-2.82814 5.01595,-5.95566 6.29691,-5.95566 0.70924,0 1.43497,0.64603 1.43306,1.27567 -7.9e-4,0.24426 -0.94647,1.42161 -2.10162,2.61631 -3.30226,3.41536 -4.57167,6.49905 -4.55161,11.05698 0.0123,2.80151 0.49964,4.861 1.75293,7.40833 0.83499,1.69712 2.69194,4.32255 3.07881,4.35294 0.0888,0.007 0.22623,-1.32677 0.30531,-2.96388 0.33351,-6.90406 2.92299,-11.34989 11.79402,-20.24892 2.71538,-2.72395 5.49293,-5.609 6.17233,-6.41122 1.95087,-2.30352 4.08169,-5.90543 4.73147,-7.99799 l 0.59636,-1.92051 h 3.06844 c 2.89075,0 3.16994,-0.0481 4.82089,-0.83032 2.24481,-1.06361 3.74293,-2.42629 4.60533,-4.18895 1.63602,-3.343916 1.29773,-7.833676 -0.99302,-13.178886 -0.80174,-1.87079 -0.8095,-1.38478 -0.0161,1.01159 0.60251,1.81989 0.6997,2.57163 0.71691,5.5449 0.0229,3.96019 -0.31064,5.03186 -2.20615,7.088246 -4.52338,4.90729 -14.77785,3.05718 -17.70034,-3.193486 -0.57638,-1.23276 -0.70509,-1.88161 -0.69386,-3.49789 0.024,-3.45157 1.71186,-6.64453 5.5292,-10.45953 1.16956,-1.16884 2.48218,-2.64481 2.91694,-3.27994 2.07923,-3.0375 5.88191,-5.65645 9.42615,-6.49192 2.17482,-0.51266 5.77602,-0.51571 7.7856,-0.007 2.48928,0.63064 5.6172,2.32241 8.05923,4.35894 1.23693,1.03154 2.9038,2.19858 3.70417,2.59343 1.35007,0.66605 1.7706,0.72902 5.82083,0.87156 3.47785,0.12239 4.40865,0.082 4.57721,-0.19845 0.34971,-0.58191 1.68448,-1.14582 2.71215,-1.14582 1.97502,0.202162 2.923,2.039898 2.76763,3.57188 -0.10556,0.96114 -0.76006,1.90505 -1.54696,2.23099 -0.63699,0.26385 -0.87796,0.63639 -1.35045,2.08779 -0.85294,2.6201 -2.50708,5.23353 -4.6662,7.37227 -2.5463,2.52228 -5.53651,4.003456 -10.61744,5.259286 -4.65859,1.15144 -5.09016,1.33779 -5.52866,2.38727 -0.44216,1.05824 -0.22253,1.83513 1.74075,6.15765 1.66001,3.65481 2.36997,6.27763 2.55844,9.45175 0.18472,3.11088 -0.21171,5.64208 -1.67483,10.69361 -1.57812,5.44861 -1.96598,7.54864 -1.98355,10.73965 -0.025,4.53162 1.1545,6.23928 4.5258,6.55261 1.03868,0.0965 2.41504,0.42301 3.05858,0.72551 2.10249,0.98829 3.8326,3.40056 3.83855,5.35206 8e-4,0.26586 -0.34655,0.83141 -0.77192,1.25677 l -0.77339,0.7734 h -5.48722 c -5.31547,0 -5.52113,-0.0199 -6.57131,-0.63533 -1.96551,-1.15186 -3.84485,-4.46717 -5.42507,-9.57023 l -0.82522,-2.66494 0.60124,-1.30381 c 0.50432,-1.09362 0.60125,-1.75169 0.60125,-4.08194 0,-2.46038 -0.0811,-2.95116 -0.7091,-4.29103 -0.82861,-1.7679 -2.71914,-3.88612 -4.29002,-4.80672 -0.60858,-0.35664 -1.87586,-0.91431 -2.81619,-1.23925 -2.23198,-0.77129 -6.45457,-0.84947 -8.9682,-0.16603 -1.60378,0.43605 -4.87542,1.76642 -4.71939,1.91907 0.0394,0.0386 0.92895,-0.21782 1.97676,-0.56971 6.88153,-2.31111 14.36976,0.17292 17.07236,5.6633 0.77922,1.583 0.8651,1.98774 0.85458,4.02752 -0.0106,2.05335 -0.10395,2.46194 -0.9879,4.32328 -0.64053,1.34877 -1.51483,2.6179 -2.54261,3.69082 l -1.5664,1.63521 1.30541,0.0482 c 0.71798,0.0265 1.69938,0.17825 2.18089,0.33716 3.66823,1.21062 5.82918,6.34481 3.10829,7.38497 -0.88193,0.33715 -25.24937,0.60541 -27.41515,0.30182 z m 35.26448,-74.731076 c -0.32426,-0.22711 -0.98569,-0.41294 -1.46987,-0.41294 -2.01935,0 -3.11911,1.34245 -3.00204,3.66448 0.0408,0.80995 1.65936,2.42094 2.43226,2.42094 3.00343,0.806788 4.86236,-3.578949 2.03965,-5.67248 z"
         style="fill:#145890;fill-opacity:0.99989104;stroke-width:0.26458332" />
      <path
         style="fill:#144e7b;fill-opacity:0.99989104;stroke-width:1.56969798"
         d="m 214.46484,58.939453 c -3.61513,4.336429 -9.00345,10.225271 -13.98437,15.203125 -22.6472,22.633316 -32.66035,41.577502 -32.80274,62.054692 -0.0666,9.58893 0.69574,13.43833 4.11524,20.75195 17.33831,37.08343 78.17578,48.05888 105.01172,18.94531 11.24552,-12.19996 13.22375,-18.55805 13.08789,-42.05273 -0.1021,-17.63957 -0.67743,-22.09959 -4.25196,-32.89649 -2.06235,-6.229084 -3.21208,-10.280669 -3.45312,-11.935544 l -0.35547,-1.017578 C 269.12813,67.199939 245.46447,56.983415 214.46484,58.939453 Z"
         transform="matrix(0.16855683,0,0,0.16855683,-262.19417,71.674704)"
         id="path824"
         inkscape:connector-curvature="0"
         sodipodi:nodetypes="ccccsccccc" />
    </g>
    <g
       style="fill:#145890;fill-opacity:0.99989104"
       transform="matrix(1.5696981,0,0,1.5696981,411.56569,49.492374)"
       id="g835">
      <circle
         style="opacity:1;fill:#145890;fill-opacity:0.99989104;stroke:none;stroke-width:0.5;stroke-linecap:round;stroke-linejoin:round;stroke-miterlimit:4;stroke-dasharray:none;stroke-dashoffset:0;stroke-opacity:1;paint-order:normal"
         id="circle829"
         cx="-203.4184"
         cy="84.283531"
         r="1.7706606" />
      <path
         style="fill:#144e7b;fill-opacity:1;stroke-width:1.56969798"
         d="m 467.4668,54.570312 c -6.02866,0 -13.82989,3.270725 -16.00977,6.681641 -0.68508,13.713449 11.97278,25.071433 20.04297,29.826172 0.89424,-0.922347 1.90959,-1.544614 3.20703,-2.082031 4.66846,-1.93371 8.55148,-7.532203 9.17774,-13.234375 0.92176,-9.088816 -4.70074,-19.992037 -16.41797,-21.191407 z"
         id="path831"
         transform="matrix(0.16855683,0,0,0.16855683,-262.19417,71.674704)"
         inkscape:connector-curvature="0"
         sodipodi:nodetypes="cccccc" />
      <path
         sodipodi:nodetypes="ccccsccccc"
         inkscape:connector-curvature="0"
         id="path833"
         transform="matrix(0.16855683,0,0,0.16855683,-262.19417,71.674704)"
         d="m 214.46484,58.939453 c -3.61513,4.336429 -9.00345,10.225271 -13.98437,15.203125 -22.6472,22.633316 -32.66035,41.577502 -32.80274,62.054692 -0.0666,9.58893 0.69574,13.43833 4.11524,20.75195 17.33831,37.08343 78.17578,48.05888 105.01172,18.94531 11.24552,-12.19996 13.22375,-18.55805 13.08789,-42.05273 -0.1021,-17.63957 -0.67743,-22.09959 -4.25196,-32.89649 -2.06235,-6.229084 -3.21208,-10.280669 -3.45312,-11.935544 l -0.35547,-1.017578 C 269.12813,67.199939 245.46447,56.983415 214.46484,58.939453 Z"
         style="fill:#144e7b;fill-opacity:0.99989104;stroke-width:1.56969798" />
    </g>
  </g>
</svg>
