<?xml version="1.0" encoding="UTF-8" standalone="no"?>
<!-- Created with Inkscape (http://www.inkscape.org/) -->

<svg
   xmlns:dc="http://purl.org/dc/elements/1.1/"
   xmlns:cc="http://creativecommons.org/ns#"
   xmlns:rdf="http://www.w3.org/1999/02/22-rdf-syntax-ns#"
   xmlns:svg="http://www.w3.org/2000/svg"
   xmlns="http://www.w3.org/2000/svg"
   xmlns:xlink="http://www.w3.org/1999/xlink"
   xmlns:sodipodi="http://sodipodi.sourceforge.net/DTD/sodipodi-0.dtd"
   xmlns:inkscape="http://www.inkscape.org/namespaces/inkscape"
   width="13.5cm"
   height="13.5cm"
   viewBox="0 0 135 135"
   version="1.1"
   id="svg8"
   inkscape:version="0.92.4 (5da689c313, 2019-01-14)"
   sodipodi:docname="rodent.svg">
  <defs
     id="defs2">
    <linearGradient
       inkscape:collect="always"
       id="linearGradient1428">
      <stop
         style="stop-color:#144f8a;stop-opacity:1;"
         offset="0"
         id="stop1424" />
      <stop
         style="stop-color:#1477a5;stop-opacity:1"
         offset="1"
         id="stop1426" />
    </linearGradient>
    <linearGradient
       inkscape:collect="always"
       xlink:href="#linearGradient1428"
       id="linearGradient1438"
       x1="-203.67477"
       y1="87.293098"
       x2="-203.56123"
       y2="82.511765"
       gradientUnits="userSpaceOnUse" />
  </defs>
  <sodipodi:namedview
     id="base"
     pagecolor="#ffffff"
     bordercolor="#666666"
     borderopacity="1.0"
     inkscape:pageopacity="0.0"
     inkscape:pageshadow="2"
     inkscape:zoom="0.7"
     inkscape:cx="471.78761"
     inkscape:cy="265.22788"
     inkscape:document-units="mm"
     inkscape:current-layer="layer1"
     showgrid="false"
     inkscape:window-width="1360"
     inkscape:window-height="705"
     inkscape:window-x="-8"
     inkscape:window-y="-8"
     inkscape:window-maximized="1"
     units="cm"
     inkscape:snap-bbox="true"
     inkscape:snap-bbox-midpoints="true" />
  <metadata
     id="metadata5">
    <rdf:RDF>
      <cc:Work
         rdf:about="">
        <dc:format>image/svg+xml</dc:format>
        <dc:type
           rdf:resource="http://purl.org/dc/dcmitype/StillImage" />
        <dc:title />
      </cc:Work>
    </rdf:RDF>
  </metadata>
  <g
     inkscape:label="Camada 1"
     inkscape:groupmode="layer"
     id="layer1"
     transform="translate(0,-162.00002)">
    <g
       id="g1800"
       transform="matrix(0.97767859,0,0,0.97767859,1.59144,5.0385417)">
      <path
         id="path2"
         d="m 94.12926,296.84696 c 23.99612,0 39.32899,-17.49955 39.32899,-41.51392 0,-25.4 -24.58059,-42.8797 -26.21942,-60.39856 -1.1893,-12.71349 8.47805,-17.17781 18.98068,-13.76891 1.26154,0.40957 2.4429,-0.81095 1.91162,-2.02618 -3.10912,-7.11147 -12.41161,-22.79068 -32.089991,-16.15996 -23.22539,7.82585 -15.567819,40.18783 -9.013031,56.84811 z"
         style="fill:#14558a;fill-opacity:1;stroke-width:0.26458332"
         inkscape:connector-curvature="0" />
      <path
         id="path4"
         d="m 5.6388348,233.48348 c -1.2078229,0 -2.1849292,-0.97843 -2.1849292,-2.18493 v -2.8485 c 0,-1.2065 0.9773709,-2.18493 2.1849292,-2.18493 1.2075583,0 2.1849292,0.97843 2.1849292,2.18493 v 2.8485 c 0,1.20677 -0.9771063,2.18493 -2.1849292,2.18493 z"
         style="fill:#dcaa82;stroke-width:0.26458332"
         inkscape:connector-curvature="0" />
      <path
         id="path6"
         d="m 5.6388348,242.2232 v 0 c -3.0167792,0 -5.46232254,-2.44555 -5.46232254,-5.46232 v -2.18493 c 0,-3.01678 2.44554334,-5.46233 5.46232254,-5.46233 v 0 c 3.0167792,0 5.4623232,2.44555 5.4623232,5.46233 v 2.18493 c 0,3.01677 -2.445544,5.46232 -5.4623232,5.46232 z"
         style="fill:#965a50;stroke-width:0.26458332"
         inkscape:connector-curvature="0" />
      <path
         id="path8"
         d="M 60.444627,267.67611 C 51.936949,258.15932 47.608102,245.9943 47.608102,245.9943 l 16.842316,-7.5946 5.644356,15.84087 z"
         style="fill:#14558a;fill-opacity:1;stroke-width:0.26458332"
         inkscape:connector-curvature="0" />
      <path
         id="path12"
         d="m 55.425745,205.89855 c -0.114035,-0.50006 -0.246591,-0.98504 -0.395023,-1.45441 -1.826154,-5.7793 -8.660341,-10.88311 -14.662679,-11.72395 -6.757723,-0.94668 -13.716794,0.9599 -18.742554,5.60996 -6.452129,5.97005 -9.03896,13.84882 -9.786408,17.73211 -0.255588,1.32768 0.240241,2.66303 1.285346,3.52081 1.256241,1.03134 3.305175,2.31457 6.224322,2.94798 0,0 1.982788,4.28837 6.761957,7.90602 -7.087394,-0.0254 -12.770644,-1.42663 -15.134961,-0.43603 -2.9437539,1.39223 -3.7618456,3.67929 -3.9322373,5.3459 -0.1320271,1.29408 0.7929563,2.45031 2.0714229,2.68949 3.5591754,0.66569 11.4334394,1.79943 19.6815604,5.37025 14.930173,6.46377 22.232408,3.76105 25.946365,2.02565 7.647252,-3.57346 14.996054,0.1188 9.627393,7.78378 -11.812322,16.86507 1.297253,30.38448 8.80798,34.89087 h -9.695657 c -3.844925,0 -7.110148,2.48311 -8.279341,5.93301 -0.468577,1.38245 0.642408,2.8067 2.102114,2.8067 h 34.980034 c 4.497123,0 8.664571,-2.35955 10.978351,-6.21585 l 2.82522,-4.70879 c 17.8443,-36.4154 -9.831911,-78.65772 -50.663205,-80.0235 z"
         style="fill:#146498;fill-opacity:1;stroke-width:0.26458332"
         inkscape:connector-curvature="0" />
      <path
         id="path14"
         d="m 41.145918,182.26464 c -2.521479,2.48153 -4.358746,7.82294 -5.41311,10.33648 -1.482725,3.53484 0.970756,7.47051 4.79716,7.69832 v 0 c 3.4163,0.20346 6.342856,-2.79162 6.281738,-6.21348 -0.06826,-3.82375 -1.236398,-9.51441 -2.567517,-11.52101 -0.687387,-1.03558 -2.212446,-1.17211 -3.098271,-0.30031 z"
         style="fill:#146d9b;fill-opacity:1;stroke-width:0.26458332"
         inkscape:connector-curvature="0" />
      <circle
         id="circle16"
         r="3.2773938"
         cy="208.35733"
         cx="27.489714"
         style="fill:#144f8a;fill-opacity:1;stroke-width:0.26458332" />
      <path
         id="path18-3"
         d="m 28.922168,222.14926 c -3.789627,0.82418 -7.033948,0.89694 -9.516533,0.38232 0,0 1.982787,4.28837 6.761956,7.90602 7.5057,0.027 16.586729,-1.48908 24.969258,-9.02441 0.974461,-0.87577 0.822855,-2.51275 -0.376502,-3.0398 -6.945841,-3.0525 -14.085623,2.08968 -21.838179,3.77587 z"
         style="fill:#14558a;fill-opacity:1;stroke-width:0.26458332"
         inkscape:connector-curvature="0" />
      <g
         id="g24"
         transform="matrix(0.26458333,0,0,0.26458333,-0.91595274,161.38029)">
        <path
           id="path20-3"
           d="M 62.981,226.247 C 75.76,207.173 62.44,196.391 52.248,192.389 c -1.817,5.47 -3.061,10.345 -3.804,14.176 -0.985,5.084 0.912,10.207 4.922,13.484 2.419,1.978 5.624,4.185 9.615,6.198 z"
           style="fill:#144f8a;fill-opacity:1"
           inkscape:connector-curvature="0" />
        <path
           id="path22-6"
           d="m 326.194,462.452 h -2.163 c -15.444,0 -30.898,-3.669 -43.897,-12.008 -37.785,-24.24 -42.754,-71.78 -39.146,-94.203 -25.998,45.357 -5.329,83.477 17.942,106.211 h 0.194 c 7.24,7.073 14.726,12.67 21.135,16.516 h 45.935 c 4.56,0 8.258,-3.698 8.258,-8.258 0,-4.561 -3.698,-8.258 -8.258,-8.258 z"
           style="fill:#14558a;fill-opacity:1"
           inkscape:connector-curvature="0" />
      </g>
      <path
         id="path26"
         d="m 133.45825,255.33304 c 0,-25.4 -24.58059,-42.8797 -26.21942,-60.39856 -1.18903,-12.71323 8.47805,-17.17754 18.98068,-13.76865 0.71702,0.23283 1.39647,-0.0693 1.76186,-0.58923 -8.81644,-13.91576 -26.02283,-16.46475 -33.03296,-6.08647 -8.135938,12.04568 -3.186377,29.76986 10.10549,43.69885 8.10049,8.48889 34.7771,45.88377 11.98166,71.90634 10.39945,-7.22921 16.42269,-19.7149 16.42269,-34.76228 z"
         style="fill:#14699b;fill-opacity:1;stroke-width:0.26458332"
         inkscape:connector-curvature="0" />
    </g>
  </g>
</svg>
