<?xml version="1.0" encoding="UTF-8" standalone="no"?>
<!-- Created with Inkscape (http://www.inkscape.org/) -->

<svg
   xmlns:dc="http://purl.org/dc/elements/1.1/"
   xmlns:cc="http://creativecommons.org/ns#"
   xmlns:rdf="http://www.w3.org/1999/02/22-rdf-syntax-ns#"
   xmlns:svg="http://www.w3.org/2000/svg"
   xmlns="http://www.w3.org/2000/svg"
   xmlns:sodipodi="http://sodipodi.sourceforge.net/DTD/sodipodi-0.dtd"
   xmlns:inkscape="http://www.inkscape.org/namespaces/inkscape"
   width="17cm"
   height="17cm"
   viewBox="0 0 170 170"
   version="1.1"
   id="svg351"
   inkscape:version="0.92.4 (5da689c313, 2019-01-14)"
   sodipodi:docname="dog-outline.svg">
  <defs
     id="defs345" />
  <sodipodi:namedview
     id="base"
     pagecolor="#ffffff"
     bordercolor="#666666"
     borderopacity="1.0"
     inkscape:pageopacity="0.0"
     inkscape:pageshadow="2"
     inkscape:zoom="0.49497475"
     inkscape:cx="371.18725"
     inkscape:cy="342.66117"
     inkscape:document-units="mm"
     inkscape:current-layer="layer1"
     showgrid="false"
     showguides="false"
     inkscape:guide-bbox="true"
     inkscape:snap-bbox="true"
     inkscape:snap-bbox-midpoints="true"
     units="cm"
     inkscape:window-width="1024"
     inkscape:window-height="705"
     inkscape:window-x="-8"
     inkscape:window-y="-8"
     inkscape:window-maximized="1">
    <sodipodi:guide
       position="104.13539,140.85814"
       orientation="1,0"
       id="guide424"
       inkscape:locked="false" />
    <sodipodi:guide
       position="104.13539,140.85814"
       orientation="0,1"
       id="guide426"
       inkscape:locked="false" />
    <sodipodi:guide
       position="106.00755,140.85814"
       orientation="1,0"
       id="guide428"
       inkscape:locked="false" />
  </sodipodi:namedview>
  <metadata
     id="metadata348">
    <rdf:RDF>
      <cc:Work
         rdf:about="">
        <dc:format>image/svg+xml</dc:format>
        <dc:type
           rdf:resource="http://purl.org/dc/dcmitype/StillImage" />
        <dc:title />
      </cc:Work>
    </rdf:RDF>
  </metadata>
  <g
     inkscape:label="Camada 1"
     inkscape:groupmode="layer"
     id="layer1"
     transform="translate(0,-127.00002)">
    <rect
       id="rect420"
       width="44.223213"
       height="55.5625"
       x="-109.65727"
       y="90.114632"
       style="stroke-width:0.26458332" />
    <path
       style="display:inline;fill:#146498;fill-opacity:1;stroke-width:0.04100308"
       d="m -88.57855,109.92315 c -1.20013,-0.20109 -1.98213,-0.79219 -2.28294,-1.72568 -0.12042,-0.37317 -0.11524,-1.54768 0.0207,-1.86689 0.0207,-0.0431 -0.0375,-0.0719 -0.20537,-0.10929 -0.3078,-0.0686 -0.58738,-0.26897 -0.74872,-0.53558 -0.24682,-0.40863 -0.22221,-0.78816 0.0932,-1.42588 0.36374,-0.73866 1.08346,-1.53859 1.60363,-1.78287 0.34121,-0.16025 0.73007,-0.2 0.97131,-0.0992 0.15047,0.0631 0.1576,0.0618 0.40816,-0.0755 0.40622,-0.2222 0.78705,-0.30846 1.36239,-0.30846 0.57675,0 0.95992,0.0874 1.35875,0.30978 0.24954,0.13905 0.25407,0.13996 0.40881,0.075 0.10618,-0.0447 0.24073,-0.0606 0.42434,-0.0498 0.39793,0.0228 0.73617,0.19738 1.15041,0.59309 0.8496,0.81174 1.39061,1.88696 1.23535,2.45503 -0.11395,0.41594 -0.46617,0.74916 -0.89336,0.84478 -0.16485,0.0369 -0.2182,0.0653 -0.20084,0.10851 0.0712,0.17929 0.11136,0.70664 0.0945,1.15767 -0.0207,0.55438 -0.0997,0.85014 -0.33811,1.25549 -0.34988,0.59825 -1.09653,1.02476 -2.0707,1.18234 -0.50023,0.0811 -1.88463,0.0792 -2.3754,-0.003 z m 0.9405,-1.05111 v -0.58436 l -0.18349,-0.0982 c -0.58478,-0.31029 -0.87368,-1.04821 -0.55306,-1.41338 0.19644,-0.22309 0.39469,-0.28162 0.96303,-0.28372 0.55164,-10e-4 0.77734,0.0457 0.96537,0.20372 0.15772,0.13257 0.20964,0.26223 0.20964,0.51206 0,0.34111 -0.30948,0.78351 -0.68242,0.98131 l -0.18336,0.0981 v 0.58436 c 0,0.67636 -0.0673,0.61193 0.55345,0.54204 1.59391,-0.17984 2.32645,-0.95191 2.21651,-2.33588 -0.0375,-0.48449 -0.13079,-0.81806 -0.53338,-1.92712 -0.45646,-1.25615 -0.64914,-1.64587 -0.99436,-2.01205 -0.41062,-0.43528 -0.85232,-0.61284 -1.52102,-0.61155 -0.95293,10e-4 -1.53085,0.39816 -2.00246,1.37299 -0.16872,0.34858 -0.57572,1.44031 -0.84092,2.25519 -0.34574,1.06213 -0.22078,2.05003 0.32749,2.58979 0.41437,0.40778 1.21139,0.67461 2.10774,0.70561 l 0.15228,0.003 z m 0.48107,-1.18438 c 0.16303,-0.10178 0.38005,-0.38158 0.38005,-0.49346 0,-0.11408 -0.16134,-0.15681 -0.59462,-0.15681 -0.42033,0 -0.5945,0.0434 -0.5945,0.14792 0,0.18777 0.39909,0.59013 0.58569,0.59013 0.0453,0 0.14723,-0.0394 0.22338,-0.0878 z m -3.41432,-2.2289 c 0.0505,-0.13543 0.18997,-0.52281 0.30742,-0.86108 0.22143,-0.63245 0.48831,-1.21143 0.70094,-1.52028 0.0647,-0.0966 0.12042,-0.18822 0.12042,-0.2035 0,-0.0469 -0.29381,0.024 -0.46863,0.11331 -0.37876,0.19324 -1.03464,0.95326 -1.31887,1.52883 -0.31596,0.63909 -0.20084,1.04739 0.33215,1.18072 0.18569,0.0466 0.23269,0.0117 0.32644,-0.23792 z m 6.94064,0.15628 c 0.43392,-0.20437 0.38342,-0.75555 -0.14128,-1.53916 -0.26649,-0.39826 -0.78161,-0.93449 -1.02324,-1.06543 -0.19644,-0.1067 -0.50567,-0.19018 -0.50567,-0.13664 0,0.015 0.0531,0.10489 0.11784,0.19935 0.2538,0.36982 0.4562,0.82992 0.84675,1.92549 0.10359,0.28821 0.20511,0.57158 0.22686,0.62974 0.0376,0.0959 0.0544,0.10294 0.19437,0.0773 0.0855,-0.015 0.21172,-0.0563 0.28579,-0.0908 z"
       id="path422"
       inkscape:connector-curvature="0"
       sodipodi:nodetypes="cccccccccsccccccccccccccccccsccsccccccccccccsssscccccsccccccccscccccc" />
    <path
       style="fill:#ffffff;fill-opacity:1;stroke:none;stroke-width:0.26458332px;stroke-linecap:butt;stroke-linejoin:miter;stroke-opacity:1"
       d="m -87.381042,102.52726 c -0.952929,0.001 -1.530853,0.39822 -2.002462,1.37305 -0.168719,0.34857 -0.575575,1.44027 -0.840774,2.25515 -0.345742,1.06213 -0.22116,2.05027 0.327112,2.59003 0.414369,0.40778 1.21153,0.67438 2.10788,0.70538 l 0.152445,0.003 -10e-4,-0.58188 v -0.58446 l -0.183452,-0.0982 c -0.584779,-0.31029 -0.874074,-1.04818 -0.553455,-1.41335 0.19644,-0.22309 0.394909,-0.2816 0.96325,-0.28371 0.55164,-0.001 0.777285,0.0456 0.965314,0.20361 0.157721,0.13257 0.209806,0.26228 0.209806,0.51211 0,0.34111 -0.309705,0.78354 -0.682643,0.98134 l -0.183452,0.0982 v 0.58446 c 0,0.67636 -0.0673,0.61198 0.553453,0.54209 1.593911,-0.17984 2.32686,-0.95232 2.21692,-2.33629 -0.0375,-0.48449 -0.131228,-0.81796 -0.533818,-1.92701 -0.456459,-1.25615 -0.649033,-1.64559 -0.994254,-2.01177 -0.41062,-0.43528 -0.852138,-0.61314 -1.520838,-0.61185 z m 0.0093,4.51032 c -0.420331,0 -0.594281,0.0433 -0.594281,0.1478 0,0.18776 0.398894,0.59014 0.585494,0.59014 0.0453,0 0.147611,-0.0395 0.223761,-0.0879 0.163028,-0.10178 0.37982,-0.38163 0.37982,-0.49351 0,-0.11408 -0.161515,-0.15658 -0.594794,-0.15658 z"
       id="path1299"
       inkscape:connector-curvature="0" />
    <circle
       style="fill:#146498;fill-opacity:1;stroke-width:0.31498015"
       id="path430"
       cx="-88.298668"
       cy="105.36065"
       r="0.31320646" />
    <circle
       r="0.31320646"
       cy="105.36065"
       cx="-86.426506"
       id="circle432"
       style="fill:#146498;fill-opacity:1;stroke-width:0.31498015" />
    <path
       style="fill:#ffffff;fill-opacity:1;stroke:none;stroke-width:0.26458332px;stroke-linecap:butt;stroke-linejoin:miter;stroke-opacity:1"
       d="m -89.490991,102.85903 c -0.09083,0.004 -0.289015,0.0612 -0.420129,0.12815 -0.378759,0.19324 -1.034553,0.95354 -1.318781,1.52911 -0.315961,0.63909 -0.200711,1.04696 0.332279,1.18029 0.18569,0.0466 0.232328,0.0119 0.326078,-0.23771 0.0505,-0.13543 0.190024,-0.52266 0.307475,-0.86093 0.22143,-0.63245 0.488619,-1.21147 0.701249,-1.52032 0.0647,-0.0966 0.120407,-0.18833 0.120407,-0.20361 0,-0.0117 -0.0183,-0.0164 -0.04858,-0.015 z"
       id="path1288"
       inkscape:connector-curvature="0" />
    <path
       style="fill:#ffffff;fill-opacity:1;stroke:none;stroke-width:0.26458332px;stroke-linecap:butt;stroke-linejoin:miter;stroke-opacity:1"
       d="m -85.249389,102.85747 c -0.03206,-0.002 -0.05168,0.003 -0.05168,0.0165 0,0.015 0.05308,0.1045 0.117821,0.19895 0.253802,0.36983 0.456428,0.8299 0.846977,1.92547 0.103592,0.28821 0.20511,0.57178 0.226861,0.62994 0.0376,0.0959 0.05433,0.10315 0.194302,0.0775 0.0855,-0.015 0.211701,-0.0564 0.285772,-0.0909 h -0.0016 c 0.433919,-0.20437 0.383622,-0.75532 -0.141076,-1.53892 -0.266491,-0.39827 -0.781563,-0.93463 -1.023194,-1.06557 -0.14733,-0.08 -0.358058,-0.14707 -0.454236,-0.15297 z"
       id="path1293"
       inkscape:connector-curvature="0" />
    <g
       id="g445"
       transform="matrix(17.896883,0,0,17.896883,-1795.4887,-2593.683)"
       style="fill:#ffffff;fill-opacity:1">
      <path
         style="display:inline;fill:#ffffff;fill-opacity:1;stroke-width:0.04100308"
         d="m 103.85551,160.70436 c -1.20013,-0.20109 -1.98213,-0.79219 -2.28294,-1.72568 -0.12042,-0.37317 -0.11524,-1.54768 0.0207,-1.86689 0.0207,-0.0431 -0.0375,-0.0719 -0.20537,-0.10929 -0.3078,-0.0686 -0.58738,-0.26897 -0.74872,-0.53558 -0.24682,-0.40863 -0.22221,-0.78816 0.0932,-1.42588 0.36374,-0.73866 1.08346,-1.53859 1.60363,-1.78287 0.34121,-0.16025 0.73007,-0.2 0.97131,-0.0992 0.15047,0.0631 0.1576,0.0618 0.40816,-0.0755 0.40622,-0.2222 0.78705,-0.30846 1.36239,-0.30846 0.57675,0 0.95992,0.0874 1.35875,0.30978 0.24954,0.13905 0.25407,0.13996 0.40881,0.075 0.10618,-0.0447 0.24073,-0.0606 0.42434,-0.0498 0.39793,0.0228 0.73617,0.19738 1.15041,0.59309 0.8496,0.81174 1.39061,1.88696 1.23535,2.45503 -0.11395,0.41594 -0.46617,0.74916 -0.89336,0.84478 -0.16485,0.0369 -0.2182,0.0653 -0.20084,0.10851 0.0712,0.17929 0.11136,0.70664 0.0945,1.15767 -0.0207,0.55438 -0.0997,0.85014 -0.33811,1.25549 -0.34988,0.59825 -1.09653,1.02476 -2.0707,1.18234 -0.50023,0.0811 -1.88463,0.0792 -2.3754,-0.003 z m 0.9405,-1.05111 v -0.58436 l -0.18349,-0.0982 c -0.58478,-0.31029 -0.87368,-1.04821 -0.55306,-1.41338 0.19644,-0.22309 0.39469,-0.28162 0.96303,-0.28372 0.55164,-0.001 0.77734,0.0457 0.96537,0.20372 0.15772,0.13257 0.20964,0.26223 0.20964,0.51206 0,0.34111 -0.30948,0.78351 -0.68242,0.98131 l -0.18336,0.0981 v 0.58436 c 0,0.67636 -0.0673,0.61193 0.55345,0.54204 1.59391,-0.17984 2.32645,-0.95191 2.21651,-2.33588 -0.0375,-0.48449 -0.13079,-0.81806 -0.53338,-1.92712 -0.45646,-1.25615 -0.64914,-1.64587 -0.99436,-2.01205 -0.41062,-0.43528 -0.85232,-0.61284 -1.52102,-0.61155 -0.95293,0.001 -1.53085,0.39816 -2.00246,1.37299 -0.16872,0.34858 -0.57572,1.44031 -0.84092,2.25519 -0.34574,1.06213 -0.22078,2.05003 0.32749,2.58979 0.41437,0.40778 1.21139,0.67461 2.10774,0.70561 l 0.15228,0.003 z m 0.48107,-1.18438 c 0.16303,-0.10178 0.38005,-0.38158 0.38005,-0.49346 0,-0.11408 -0.16134,-0.15681 -0.59462,-0.15681 -0.42033,0 -0.5945,0.0434 -0.5945,0.14792 0,0.18777 0.39909,0.59013 0.58569,0.59013 0.0453,0 0.14723,-0.0394 0.22338,-0.0878 z m -3.41432,-2.2289 c 0.0505,-0.13543 0.18997,-0.52281 0.30742,-0.86108 0.22143,-0.63245 0.48831,-1.21143 0.70094,-1.52028 0.0647,-0.0966 0.12042,-0.18822 0.12042,-0.2035 0,-0.0469 -0.29381,0.024 -0.46863,0.11331 -0.37876,0.19324 -1.03464,0.95326 -1.31887,1.52883 -0.31596,0.63909 -0.20084,1.04739 0.33215,1.18072 0.18569,0.0466 0.23269,0.0117 0.32644,-0.23792 z m 6.94064,0.15628 c 0.43392,-0.20437 0.38342,-0.75555 -0.14128,-1.53916 -0.26649,-0.39826 -0.78161,-0.93449 -1.02324,-1.06543 -0.19644,-0.1067 -0.50567,-0.19018 -0.50567,-0.13664 0,0.015 0.0531,0.10489 0.11784,0.19935 0.2538,0.36982 0.4562,0.82992 0.84675,1.92549 0.10359,0.28821 0.20511,0.57158 0.22686,0.62974 0.0376,0.0959 0.0544,0.10294 0.19437,0.0773 0.0855,-0.015 0.21172,-0.0563 0.28579,-0.0908 z"
         id="path439"
         inkscape:connector-curvature="0"
         sodipodi:nodetypes="cccccccccsccccccccccccccccccsccsccccccccccccsssscccccsccccccccscccccc" />
      <circle
         style="fill:#ffffff;fill-opacity:1;stroke-width:0.31498015"
         id="circle441"
         cx="104.13539"
         cy="156.14186"
         r="0.31320646" />
      <circle
         r="0.31320646"
         cy="156.14186"
         cx="106.00755"
         id="circle443"
         style="fill:#ffffff;fill-opacity:1;stroke-width:0.31498015" />
    </g>
    <text
       xml:space="preserve"
       style="font-style:normal;font-weight:normal;font-size:10.58333302px;line-height:1.25;font-family:sans-serif;letter-spacing:0px;word-spacing:0px;fill:#000000;fill-opacity:1;stroke:none;stroke-width:0.26458332"
       x="-89.268021"
       y="206.12837"
       id="text1193"><tspan
         sodipodi:role="line"
         id="tspan1191"
         x="-89.268021"
         y="206.12837"
         style="stroke-width:0.26458332;-inkscape-font-specification:Simplifica;font-family:Simplifica;font-weight:normal;font-style:normal;font-stretch:normal;font-variant:normal">Adotar</tspan></text>
  </g>
</svg>
