<?xml version="1.0" encoding="UTF-8" standalone="no"?>
<!-- Created with Inkscape (http://www.inkscape.org/) -->

<svg
   xmlns:dc="http://purl.org/dc/elements/1.1/"
   xmlns:cc="http://creativecommons.org/ns#"
   xmlns:rdf="http://www.w3.org/1999/02/22-rdf-syntax-ns#"
   xmlns:svg="http://www.w3.org/2000/svg"
   xmlns="http://www.w3.org/2000/svg"
   xmlns:xlink="http://www.w3.org/1999/xlink"
   xmlns:sodipodi="http://sodipodi.sourceforge.net/DTD/sodipodi-0.dtd"
   xmlns:inkscape="http://www.inkscape.org/namespaces/inkscape"
   width="13.5cm"
   height="13.5cm"
   viewBox="0 0 135 135"
   version="1.1"
   id="svg8"
   inkscape:version="0.92.4 (5da689c313, 2019-01-14)"
   sodipodi:docname="shopCar.svg">
  <defs
     id="defs2">
    <linearGradient
       inkscape:collect="always"
       id="linearGradient1428">
      <stop
         style="stop-color:#144f8a;stop-opacity:1;"
         offset="0"
         id="stop1424" />
      <stop
         style="stop-color:#1477a5;stop-opacity:1"
         offset="1"
         id="stop1426" />
    </linearGradient>
    <linearGradient
       inkscape:collect="always"
       xlink:href="#linearGradient1428"
       id="linearGradient1438"
       x1="-203.67477"
       y1="87.293098"
       x2="-203.56123"
       y2="82.511765"
       gradientUnits="userSpaceOnUse" />
  </defs>
  <sodipodi:namedview
     id="base"
     pagecolor="#ffffff"
     bordercolor="#666666"
     borderopacity="1.0"
     inkscape:pageopacity="0.0"
     inkscape:pageshadow="2"
     inkscape:zoom="0.5"
     inkscape:cx="721.81907"
     inkscape:cy="351.21732"
     inkscape:document-units="mm"
     inkscape:current-layer="layer1"
     showgrid="false"
     inkscape:window-width="1360"
     inkscape:window-height="705"
     inkscape:window-x="-8"
     inkscape:window-y="-8"
     inkscape:window-maximized="1"
     units="cm"
     inkscape:snap-bbox="true"
     inkscape:snap-bbox-midpoints="true" />
  <metadata
     id="metadata5">
    <rdf:RDF>
      <cc:Work
         rdf:about="">
        <dc:format>image/svg+xml</dc:format>
        <dc:type
           rdf:resource="http://purl.org/dc/dcmitype/StillImage" />
        <dc:title></dc:title>
      </cc:Work>
    </rdf:RDF>
  </metadata>
  <g
     inkscape:label="Camada 1"
     inkscape:groupmode="layer"
     id="layer1"
     transform="translate(0,-162.00002)">
    <path
       style="fill:#146498;fill-opacity:1;stroke-width:0.34650755"
       d="m 55.791514,286.71031 c -5.97497,-1.17124 -10.6356,-6.49654 -11.02729,-12.59996 -0.14654,-2.28321 0.13669,-4.42621 0.82045,-6.20806 0.17968,-0.46824 -0.0406,-0.56447 -1.29316,-0.56491 -1.77542,-7.9e-4 -3.64012,-0.86277 -4.49556,-2.07853 -0.46421,-0.65973 -10.39908,-40.77744 -12.0992,-48.85754 -0.14036,-0.66703 -2.76789,-11.63881 -5.83899,-24.38174 -2.08277,-9.89524 -0.98891,-13.87238 -8.08012,-13.87238 -8.4925296,-0.0975 -9.0381596,-0.14281 -9.9620896,-0.82915 -2.1172,-1.57275 -2.11711,-2.29063 1.7e-4,-3.86315 0.93535,-0.69472 1.44032,-0.73047 11.6720396,-0.82684 8.84911,-0.40157 8.85469,4.71724 10.32228,10.80444 0,0 1.96294,3.1992 3.30958,3.85541 l 51.23433,0.09 c 50.679516,0.089 51.242736,0.0977 52.011506,0.78303 1.83574,1.63694 1.84345,2.13131 0.17645,11.31925 -0.84141,4.63744 -3.1076,17.16365 -5.03602,27.83609 -2.0224,11.19262 -3.72953,19.74662 -4.03388,20.21301 -1.20664,1.84907 0.14847,1.79023 -41.217656,1.79023 h -38.34062 l 0.20842,0.77964 c 0.11458,0.4288 0.63561,2.6118 1.15774,4.8511 l 0.94934,4.07146 37.25838,0.001 c 36.759036,10e-4 37.273726,0.0106 38.405346,0.70061 1.57387,0.95955 2.2776,2.71576 1.79961,4.49096 -0.44861,1.666 -1.80964,2.70549 -3.92129,2.99491 l -1.55344,0.21292 0.45062,1.0839 c 0.74887,1.80131 0.96816,4.80639 0.51187,7.01496 -1.21165,5.86475 -5.61714,10.16965 -11.52038,11.25736 -8.969546,1.65273 -17.569556,-6.84454 -15.931896,-15.74157 0.21663,-1.17694 0.4984,-2.49071 0.62614,-2.91952 l 0.23225,-0.77964 h -10.57094 -10.57096 l 0.52192,1.7804 c 0.80514,2.74661 0.47151,7.22081 -0.72488,9.72096 -2.84487,5.94512 -9.07738,9.12027 -15.45007,7.87104 z m 6.19785,-8.96038 c 1.28529,-0.9152 2.43007,-3.12263 2.44153,-4.70786 0.0105,-1.52907 -1.36895,-4.01787 -2.72906,-4.92173 -1.81024,-1.20298 -4.68933,-1.10096 -6.52857,0.23139 -3.43548,2.48866 -3.07256,7.95382 0.65427,9.85257 1.64658,0.83888 4.65739,0.61688 6.16183,-0.45437 z m 46.482736,0.23483 c 1.85971,-1.25327 2.74492,-2.84294 2.74492,-4.92947 0,-2.08655 -0.88521,-3.67621 -2.74492,-4.92949 -2.48896,-1.67731 -6.04652,-0.79623 -7.90195,1.95703 -1.677306,2.48897 -0.796226,6.04653 1.95704,7.90193 0.84407,0.56883 1.67057,0.78789 2.97246,0.78789 1.30188,0 2.12836,-0.21906 2.97245,-0.78789 z M 54.520334,240.01014 c -0.10923,-0.54624 -0.45787,-2.37839 -0.77473,-4.07144 l -0.57608,-3.07829 -6.32002,-0.0943 c -3.47601,-0.0519 -6.32288,0.026 -6.32637,0.17326 -0.004,0.14722 0.41844,2.02188 0.93764,4.1659 l 0.94402,3.89822 h 6.1571 6.15707 z m 19.27387,-3.1649 v -4.15808 h -6.26049 c -5.80011,0 -6.2472,0.0446 -6.08001,0.60639 0.0993,0.33352 0.42961,2.00973 0.73411,3.72495 0.30449,1.71522 0.61872,3.31347 0.69827,3.5517 0.10738,0.32172 1.52913,0.43313 5.52638,0.43313 h 5.38174 z m 19.71655,0.25989 c 0.40357,-2.14401 0.73233,-4.01516 0.73058,-4.15808 -10e-4,-0.14295 -2.8099,-0.25989 -6.24032,-0.25989 h -6.23713 v 4.15808 4.15809 h 5.50655 5.50656 z m 23.409766,3.11856 c 0.36982,-1.67061 1.22665,-6.59873 1.22665,-7.05506 0,-0.39666 -1.37044,-0.48147 -7.78072,-0.48147 h -7.78071 l -0.22794,1.2994 c -0.12534,0.71467 -0.44429,2.36211 -0.70871,3.66099 -0.26444,1.29886 -0.48078,2.58528 -0.48078,2.85866 0,0.41708 1.2543,0.49712 7.78981,0.49712 h 7.78981 z M 51.465184,224.29252 c 0.0711,-0.0712 -0.23652,-1.99259 -0.6835,-4.2701 -0.44697,-2.27748 -0.91658,-4.72562 -1.04355,-5.44029 l -0.23086,-1.29939 h -6.91444 c -3.80295,0 -6.91776,0.11692 -6.92181,0.25987 -0.004,0.14295 0.57405,2.63163 1.28468,5.53038 l 1.29208,5.27055 2.44025,0.10028 c 3.07499,0.12652 10.60509,0.0207 10.77715,-0.15135 z m 21.72263,0.0885 c 0.55184,-0.01 0.60639,-0.50866 0.60639,-5.55401 v -5.54413 h -7.96967 c -6.15253,0 -7.96633,0.0987 -7.95505,0.43311 0.008,0.23825 0.44058,2.69413 0.96117,5.45752 l 0.94653,5.02434 2.24403,0.17327 c 1.23423,0.0953 4.11517,0.13872 6.40213,0.0964 2.28694,-0.0422 4.43096,-0.0812 4.76447,-0.0865 z m 22.64469,-0.10258 c 0.0452,-0.0453 0.54022,-2.47315 1.10005,-5.39546 0.71624,-3.73875 0.90182,-5.35785 0.62621,-5.46361 -0.21544,-0.0826 -3.81843,-0.10828 -8.00667,-0.0567 l -7.61496,0.0937 -0.0954,5.44388 -0.0953,5.44387 3.04067,0.10019 c 3.08639,0.10184 10.89506,-0.0154 11.04541,-0.16584 z m 23.889096,0.0158 c 0.14233,-0.14864 1.89063,-9.82098 1.89063,-10.45975 0,-0.50789 -0.77588,-0.55538 -7.70355,-0.47152 l -7.70355,0.0932 -1.00349,5.323 c -0.66191,3.51104 -0.88195,5.39825 -0.64642,5.5441 0.33481,0.20735 14.96685,0.17925 15.16638,-0.029 z M 47.805094,204.70678 c -10e-4,-0.54704 -1.11855,-6.73595 -1.56431,-8.6627 -0.18017,-0.77872 -0.18915,-0.77963 -7.62369,-0.77963 -5.00542,0 -7.44332,0.1201 -7.44332,0.36678 0,0.35988 1.95877,8.39872 2.2536,9.2488 0.11354,0.32758 1.88419,0.43313 7.26449,0.43313 6.5449,0 7.1142,-0.0486 7.11323,-0.60638 z m 25.98911,-4.41797 v -5.02436 h -9.73977 -9.73978 l 0.18595,0.77963 c 0.10227,0.42882 0.53633,2.68978 0.96461,5.02437 l 0.77867,4.24471 h 8.77516 8.77516 z m 25.80873,4.24473 c 0.447926,-1.93602 1.563356,-8.11697 1.564306,-8.66818 10e-4,-0.57235 -0.61991,-0.60592 -9.614516,-0.51977 l -9.61559,0.0921 -0.0961,4.93774 -0.0961,4.93771 h 8.83885 8.83885 z m 23.743706,0.51975 c 0.001,-0.14294 0.37282,-2.33773 0.82621,-4.87736 0.60046,-3.36346 0.71515,-4.65936 0.42231,-4.77175 -0.22111,-0.0848 -3.67249,-0.11194 -7.66971,-0.0603 l -7.26772,0.0938 -0.72756,3.63833 c -0.40013,2.0011 -0.836,4.22307 -0.96858,4.93773 l -0.24104,1.29941 h 7.8121 c 4.29667,0 7.81296,-0.11692 7.81399,-0.25988 z"
       id="path833"
       inkscape:connector-curvature="0"
       sodipodi:nodetypes="ccccccccccccccccscsccccsccsccscccccccccccccccccscccscccccccccccccscccsccccscccccccsscccssccccccscscccccscscsccccccscccccccccsccccccccsscscccccccccccccccccccccsccccccscc" />
  </g>
</svg>
